<svg width="700" height="114" viewBox="0 0 700 114" fill="none" xmlns="http://www.w3.org/2000/svg">
<rect width="700" height="114" fill="#D3D3D3"/>
<path fill-rule="evenodd" clip-rule="evenodd" d="M241.342 44.5065C225.43 44.5065 216.001 49.8105 216.001 65.0762C216.001 71.3939 221.823 77.963 227.656 83.4222C233.131 88.5475 238.751 93.327 241.344 93.327C243.937 93.327 249.556 88.5475 255.031 83.4222C260.863 77.963 266.686 71.3939 266.686 65.0762C266.684 49.8007 257.258 44.5065 241.342 44.5065ZM230.687 57.7724C230.687 57.2813 230.833 56.8013 231.106 56.3929C231.378 55.9846 231.766 55.6663 232.22 55.4784C232.674 55.2905 233.173 55.2413 233.655 55.3371C234.136 55.4329 234.579 55.6694 234.926 56.0166C235.273 56.3639 235.51 56.8063 235.605 57.288C235.701 57.7697 235.652 58.2689 235.464 58.7227C235.276 59.1764 234.958 59.5642 234.55 59.837C234.141 60.1099 233.661 60.2555 233.17 60.2555C232.512 60.2555 231.88 59.9939 231.414 59.5282C230.949 59.0625 230.687 58.431 230.687 57.7724V57.7724ZM241.342 78.6506C237.323 78.6506 234.074 76.0123 234.074 72.7572C234.074 69.5022 237.331 66.8639 241.342 66.8639C245.354 66.8639 248.611 69.5022 248.611 72.7572C248.611 76.0123 245.36 78.6486 241.342 78.6486V78.6506ZM249.514 60.2555C249.023 60.2555 248.543 60.1099 248.135 59.837C247.726 59.5642 247.408 59.1764 247.22 58.7227C247.032 58.2689 246.983 57.7697 247.079 57.288C247.175 56.8063 247.411 56.3639 247.759 56.0166C248.106 55.6694 248.548 55.4329 249.03 55.3371C249.512 55.2413 250.011 55.2905 250.465 55.4784C250.918 55.6663 251.306 55.9846 251.579 56.3929C251.852 56.8013 251.997 57.2813 251.997 57.7724C251.997 58.0984 251.933 58.4212 251.808 58.7224C251.684 59.0235 251.501 59.2971 251.27 59.5276C251.039 59.758 250.766 59.9407 250.464 60.0652C250.163 60.1898 249.84 60.2538 249.514 60.2535V60.2555Z" fill="#827A73"/>
<path fill-rule="evenodd" clip-rule="evenodd" d="M213.506 59.5247C208.398 59.6661 206.542 52.6845 208.666 48.6554C210.803 44.8365 213.241 44.039 214.907 44.039C216.037 43.9128 217.178 44.1333 218.18 44.6711C219.182 45.209 219.996 46.0388 220.515 47.0504C216.659 50.151 214.149 54.6204 213.508 59.5267" fill="#827A73"/>
<path fill-rule="evenodd" clip-rule="evenodd" d="M241.342 20C242.802 20.0118 243.725 28.6279 244.552 30.4489C244.976 31.382 245.731 30.8811 246.285 29.4667C247.721 25.8148 250.54 21.0765 251.221 21.2592C251.903 21.4419 251.394 26.5102 250.986 30.3114C250.803 32.0087 251.428 32.2483 252.459 30.8889C252.795 30.4469 254.736 27.8676 255.551 28.066C255.748 28.1132 255.966 28.2723 256.005 29.2643C256.032 30.003 256.928 29.6199 258.166 28.453C260.006 26.7243 261.814 25.0113 262.22 25.3708C262.598 25.7028 261.655 28.4884 260.771 31.0677C260.215 32.6825 260.389 33.4584 261.256 32.8868C261.635 32.6373 262.971 31.771 263.356 32.264C263.456 32.3917 263.619 32.5764 263.22 33.6647C262.943 34.423 263.81 34.254 265.255 33.3484C267.22 32.1206 269.196 30.9145 269.497 31.1875C269.89 31.5568 268.609 33.922 267.222 36.4797C266.409 37.9806 267.348 38.1004 268.312 37.4954C269.339 36.8888 270.431 36.3986 271.567 36.0338C272.115 35.9022 274.317 34.5016 272.518 39.1946C272.204 40.0158 273.052 40.2515 273.787 40.0766C275.422 39.5416 277.128 39.2536 278.847 39.2221C279.036 39.197 279.228 39.2186 279.407 39.2851C279.585 39.3515 279.745 39.4608 279.871 39.6032C280.156 40.0511 279.871 40.7524 277.064 43.6343C276.72 43.9879 276.777 44.3022 277.808 44.5202C283.91 45.8109 283.505 46.909 283.421 47.2174C283.336 47.5259 282.136 47.9305 280.584 48.7183C279.5 49.2683 279.828 50.1935 281.329 51.0068C285.312 53.1677 285.087 54.0164 285.043 54.201C285.008 54.3523 284.927 54.6489 284.061 54.8788C283.385 55.0556 283.798 55.749 284.939 56.6311C285.969 57.4326 286.831 58.1241 286.684 58.4973C286.536 58.8706 285.479 59.0061 284.179 59.2241C282.743 59.4559 282.332 60.2221 283.197 61.1021C284.495 62.4281 284.305 62.7719 284.159 62.9389C283.988 63.0694 283.792 63.1639 283.584 63.2166C283.375 63.2693 283.158 63.279 282.945 63.2454C282.262 63.2218 282.515 63.4909 282.814 63.6991C283.438 64.1333 286.507 66.5535 286.399 67.0682C286.354 67.302 285.454 67.135 284.187 66.8718C282.951 66.6262 282.378 66.359 282.578 67.1134C282.778 67.8677 281.767 68.3352 280.981 68.4413C280.508 68.4979 280.032 68.5222 279.557 68.514C278.058 68.514 277.8 69.9422 276.967 71.2761C275.172 73.913 272.863 76.1597 270.177 77.8814C267.492 79.603 264.486 80.7641 261.34 81.2947C265.633 76.6724 269.622 70.9912 269.622 65.09C269.622 64.1844 269.589 63.322 269.53 62.4694C276.779 62.3221 279.655 53.0695 276.618 47.3019L276.6 47.2685L276.58 47.2351C274.724 43.9191 271.797 41.1178 267.784 41.1178C266.168 40.9888 264.55 41.3257 263.12 42.0886C261.691 42.8514 260.51 44.0083 259.718 45.4219C254.018 42.6079 247.697 41.2885 241.348 41.5873C234.999 41.2885 228.678 42.6079 222.979 45.4219C222.186 44.0083 221.006 42.8514 219.576 42.0886C218.146 41.3257 216.528 40.9888 214.913 41.1178C210.899 41.1178 207.972 43.9191 206.116 47.2351L206.098 47.2685L206.08 47.3019C203.041 53.0695 205.917 62.3221 213.168 62.4694C213.107 63.3122 213.076 64.1844 213.076 65.09C213.076 70.9833 217.066 76.6802 221.358 81.2947C218.212 80.7641 215.207 79.603 212.521 77.8814C209.836 76.1597 207.526 73.913 205.731 71.2761C204.898 69.9422 204.64 68.514 203.142 68.514C202.666 68.5222 202.191 68.4979 201.719 68.4413C200.933 68.3352 199.922 67.8677 200.122 67.1134C200.323 66.359 199.751 66.6262 198.515 66.8718C197.248 67.1311 196.354 67.3 196.303 67.0682C196.193 66.5535 199.262 64.1333 199.886 63.6991C200.185 63.4909 200.438 63.2198 199.755 63.2454C199.542 63.2789 199.325 63.2691 199.116 63.2164C198.908 63.1637 198.712 63.0693 198.541 62.9389C198.395 62.7719 198.205 62.4281 199.503 61.1021C200.358 60.2221 199.947 59.4559 198.521 59.2241C197.221 59.0061 196.164 58.8686 196.016 58.4973C195.869 58.126 196.732 57.4326 197.761 56.6311C198.902 55.7471 199.315 55.0595 198.639 54.8788C197.771 54.6489 197.688 54.3503 197.657 54.201C197.614 54.0164 197.39 53.1736 201.372 51.0068C202.872 50.1935 203.2 49.2664 202.116 48.7183C200.564 47.9325 199.366 47.5396 199.279 47.2174C199.193 46.8953 198.792 45.8109 204.892 44.5202C205.923 44.3022 205.98 43.9859 205.636 43.6343C202.823 40.7524 202.544 40.0511 202.829 39.6032C202.956 39.4608 203.115 39.3515 203.293 39.2851C203.472 39.2186 203.664 39.197 203.853 39.2221C205.573 39.2534 207.278 39.5414 208.913 40.0766C209.648 40.2515 210.496 40.0158 210.182 39.1946C208.389 34.5016 210.575 35.9022 211.133 36.0338C212.269 36.3986 213.361 36.8888 214.388 37.4954C215.354 38.1004 216.294 37.9806 215.48 36.4797C214.093 33.926 212.803 31.5568 213.205 31.1875C213.506 30.9105 215.478 32.1167 217.447 33.3484C218.896 34.2521 219.759 34.423 219.482 33.6647C219.089 32.5764 219.248 32.3917 219.348 32.264C219.741 31.771 221.069 32.6353 221.446 32.8868C222.313 33.4584 222.489 32.6903 221.933 31.0677C221.047 28.4982 220.107 25.7126 220.484 25.3708C220.861 25.029 222.696 26.7263 224.536 28.453C225.78 29.6199 226.676 30.0049 226.697 29.2643C226.735 28.2821 226.959 28.1132 227.151 28.066C227.966 27.8696 229.901 30.4469 230.241 30.8889C231.274 32.2483 231.897 32.0087 231.716 30.3114C231.308 26.5102 230.803 21.438 231.479 21.2592C232.154 21.0804 234.979 25.8148 236.417 29.4667C236.977 30.8889 237.726 31.3899 238.15 30.4489C238.977 28.6298 239.898 20.0138 241.36 20" fill="#F3771F"/>
<path fill-rule="evenodd" clip-rule="evenodd" d="M269.178 59.5247C274.286 59.6662 276.142 52.6845 274.019 48.6554C271.88 44.8365 269.444 44.039 267.778 44.039C266.648 43.9132 265.507 44.1339 264.506 44.6718C263.504 45.2096 262.69 46.0392 262.171 47.0505C266.027 50.1509 268.538 54.6204 269.178 59.5267" fill="#827A73"/>
<path fill-rule="evenodd" clip-rule="evenodd" d="M241.34 69.8911C239.006 69.8911 237.109 71.1739 237.109 72.7553C237.109 74.3367 239.005 75.6175 241.34 75.6175C243.676 75.6175 245.574 74.3367 245.574 72.7553C245.574 71.1739 243.678 69.8911 241.34 69.8911ZM241.34 71.6827C239.511 71.6827 238.197 72.8496 238.223 72.4567C238.319 71.3251 240.097 70.669 241.34 70.669C242.584 70.669 244.362 71.3271 244.458 72.4567C244.491 72.8496 243.169 71.6807 241.34 71.6807V71.6827Z" fill="#827A73"/>
<path fill-rule="evenodd" clip-rule="evenodd" d="M331.381 67.2509V85.8522H335.87V66.3492C335.87 62.1257 333.77 51.5785 322.25 51.5196C320.171 51.5485 318.121 52.0122 316.231 52.8811C314.342 53.7499 312.656 55.0045 311.28 56.5643V33.1598H306.794V85.8522H311.282V67.8599C311.282 57.8412 317.439 55.5703 322.006 55.7471C328.515 56.0005 331.383 61.4793 331.383 67.2489" fill="white"/>
<path fill-rule="evenodd" clip-rule="evenodd" d="M360.932 50.724C363.34 50.7202 365.726 51.1925 367.951 52.1139C370.176 53.0353 372.197 54.3876 373.897 56.0928L370.723 59.2674C368.787 57.3311 366.32 56.0123 363.635 55.4779C360.949 54.9436 358.166 55.2176 355.636 56.2653C353.106 57.313 350.944 59.0874 349.423 61.364C347.902 63.6406 347.09 66.3171 347.09 69.0552C347.09 71.7933 347.902 74.4699 349.423 76.7465C350.944 79.0231 353.106 80.7975 355.636 81.8452C358.166 82.8929 360.949 83.1669 363.635 82.6325C366.32 82.0981 368.787 80.7794 370.723 78.8431L373.897 82.0177C371.766 84.1497 369.141 85.7231 366.256 86.5985C363.372 87.474 360.315 87.6244 357.358 87.0366C354.401 86.4487 351.635 85.1406 349.305 83.2283C346.974 81.3159 345.151 78.8583 343.997 76.0731C342.843 73.2879 342.394 70.2611 342.689 67.2608C342.984 64.2605 344.015 61.3793 345.69 58.8725C347.364 56.3657 349.632 54.3106 352.29 52.8892C354.949 51.4679 357.917 50.7242 360.932 50.724" fill="white"/>
<path fill-rule="evenodd" clip-rule="evenodd" d="M398.962 55.2128C401.7 55.2128 404.376 56.0246 406.653 57.5458C408.929 59.0669 410.704 61.229 411.751 63.7585C412.799 66.2881 413.073 69.0715 412.539 71.7569C412.005 74.4423 410.687 76.909 408.751 78.845C406.815 80.7811 404.348 82.0995 401.662 82.6337C398.977 83.1678 396.194 82.8937 393.664 81.8459C391.135 80.7981 388.972 79.0238 387.451 76.7472C385.93 74.4707 385.118 71.7942 385.118 69.0562C385.118 67.2383 385.476 65.4381 386.172 63.7585C386.868 62.079 387.887 60.5529 389.173 59.2674C390.458 57.9819 391.985 56.9622 393.664 56.2665C395.344 55.5708 397.144 55.2128 398.962 55.2128V55.2128ZM398.962 50.724C402.588 50.724 406.132 51.7991 409.147 53.8135C412.161 55.8279 414.511 58.691 415.899 62.0408C417.286 65.3906 417.649 69.0766 416.942 72.6327C416.234 76.1888 414.488 79.4553 411.925 82.0191C409.361 84.5829 406.094 86.3288 402.538 87.0362C398.982 87.7435 395.296 87.3805 391.946 85.993C388.597 84.6055 385.733 82.2558 383.719 79.241C381.705 76.2263 380.63 72.682 380.63 69.0562C380.63 64.1942 382.561 59.5313 385.999 56.0934C389.437 52.6554 394.1 50.724 398.962 50.724Z" fill="white"/>
<path fill-rule="evenodd" clip-rule="evenodd" d="M456.2 69.0228H456.188V68.4197C456.026 64.7793 454.434 61.3498 451.759 58.8751C449.085 56.4005 445.542 55.0803 441.9 55.201C438.258 55.3217 434.81 56.8735 432.305 59.5199C429.8 62.1662 428.439 65.6936 428.518 69.3368C428.597 72.98 430.109 76.4451 432.727 78.9804C435.344 81.5158 438.856 82.9168 442.5 82.8796C446.144 82.8424 449.626 81.37 452.191 78.7818C454.756 76.1935 456.197 72.6983 456.202 69.0542L456.2 69.0228ZM442.356 50.724C444.978 50.721 447.569 51.2816 449.955 52.3679C452.341 53.4542 454.465 55.0408 456.184 57.02V33.1598H460.681V68.569C460.681 68.7301 460.681 68.8912 460.681 69.0542C460.681 72.68 459.606 76.2243 457.591 79.2391C455.577 82.2538 452.714 84.6035 449.364 85.991C446.014 87.3785 442.328 87.7416 438.772 87.0342C435.216 86.3269 431.949 84.5809 429.386 82.0171C426.822 79.4533 425.076 76.1868 424.369 72.6307C423.661 69.0746 424.024 65.3886 425.412 62.0388C426.799 58.689 429.149 55.8259 432.164 53.8115C435.178 51.7972 438.723 50.722 442.349 50.722L442.356 50.724Z" fill="white"/>
<path fill-rule="evenodd" clip-rule="evenodd" d="M498.367 63.3514C497.015 60.3598 494.644 57.9461 491.676 56.5411C488.709 55.1361 485.34 54.8313 482.168 55.681C478.997 56.5308 476.232 58.4799 474.365 61.1803C472.498 63.8807 471.651 67.1567 471.976 70.4235L498.367 63.3514ZM481.009 51.3487C483.517 50.6776 486.139 50.5468 488.702 50.965C491.265 51.3832 493.709 52.3408 495.874 53.7745C498.039 55.2082 499.874 57.0852 501.26 59.2814C502.645 61.4776 503.547 63.943 503.908 66.5142L473.139 74.7649C474.188 77.085 475.857 79.0708 477.962 80.5039C480.066 81.937 482.526 82.7619 485.069 82.8878C487.612 83.0137 490.14 82.4357 492.376 81.2175C494.612 79.9993 496.469 78.188 497.742 75.9829L501.63 78.2282C500.123 80.8389 497.995 83.0377 495.435 84.6298C492.875 86.2218 489.962 87.158 486.954 87.3555C483.946 87.553 480.936 87.0056 478.19 85.7619C475.444 84.5181 473.047 82.6164 471.211 80.2251C469.376 77.8338 468.158 75.0268 467.666 72.0526C467.175 69.0784 467.424 66.0289 468.392 63.1741C469.361 60.3193 471.018 57.7474 473.218 55.6861C475.417 53.6248 478.091 52.1377 481.003 51.3565L481.009 51.3487Z" fill="white"/>
</svg>
